<svg width="24" height="24" viewBox="0 0 24 24" fill="none" xmlns="http://www.w3.org/2000/svg">
<path d="M24 18C24 18.7072 23.719 19.3855 23.219 19.8856C22.7189 20.3857 22.0406 20.6667 21.3333 20.6667H2.66667C1.95942 20.6667 1.28115 20.3857 0.781049 19.8856C0.280952 19.3855 0 18.7072 0 18V5.99999C0 5.29275 0.280952 4.61447 0.781049 4.11438C1.28115 3.61428 1.95942 3.33333 2.66667 3.33333H21.3333C22.0406 3.33333 22.7189 3.61428 23.219 4.11438C23.719 4.61447 24 5.29275 24 5.99999V18Z" fill="#CE1126"/>
<path d="M0 8H24V16H0V8Z" fill="#EEEEEE"/>
<path d="M9.97461 13.1773C9.88795 12.944 9.86395 12.74 9.86395 12.74C9.86395 12.74 9.81195 12.6673 9.65195 12.74C9.49195 12.8127 9.32261 12.948 9.08261 13.0007C8.97128 13.0247 8.87528 12.968 8.80261 12.9027C8.82928 12.998 8.86995 13.086 8.90461 13.178L9.97461 13.1773ZM12.3553 13.1773C12.2893 13.0427 12.2079 12.938 11.9999 12.938C11.7986 12.938 11.7086 13.056 11.6426 13.1773H12.3553ZM15.0953 13.1773C15.1346 13.076 15.1779 12.976 15.2066 12.87C14.9859 13.0947 14.6466 13.0087 14.5419 12.8753C14.4273 12.7293 14.1673 12.7073 14.1673 12.7073C14.1673 12.7073 14.1359 12.9173 14.0673 13.1673C14.0666 13.1707 14.0639 13.1747 14.0626 13.178L15.0953 13.1773ZM14.8579 13.6773C14.9106 13.5873 14.9653 13.4987 15.0099 13.4033C14.9364 13.3638 14.8547 13.3417 14.7713 13.3387C14.5419 13.3333 14.5199 13.4973 14.1986 13.5C14.0459 13.5013 13.9653 13.4627 13.9213 13.4133C13.8355 13.5148 13.7359 13.6037 13.6253 13.6773H14.8579ZM11.2753 13.6773H12.6533C12.6248 13.6496 12.5985 13.6198 12.5746 13.588L12.5766 13.596C12.5766 13.596 12.2913 13.3233 11.9993 13.3233C11.6246 13.3233 11.3659 13.596 11.3659 13.596L11.3746 13.58C11.3438 13.6147 11.3106 13.6473 11.2753 13.6773ZM10.3159 13.6773C10.2232 13.6005 10.1447 13.508 10.0839 13.404C9.98528 13.472 9.87395 13.5293 9.76061 13.5213C9.47928 13.5007 9.30061 13.2013 9.13528 13.282C9.07861 13.31 9.02528 13.3373 8.97395 13.3613C9.02328 13.4713 9.08328 13.5747 9.14328 13.678L10.3159 13.6773ZM9.58661 14.2707H14.4146C14.4939 14.1847 14.5699 14.096 14.6406 14.0027C14.5286 13.9067 14.3593 13.792 14.1666 13.792C13.8439 13.792 13.7059 14.084 13.4206 14.084C13.1353 14.084 13.1039 13.8233 12.7499 13.8233C12.3959 13.8233 12.2393 14.1253 11.9633 14.1253C11.6873 14.1253 11.4893 13.8233 11.2293 13.8233C10.9686 13.8233 10.7706 14.1253 10.4899 14.1253C10.2093 14.1253 10.0526 13.792 9.80261 13.792C9.64528 13.792 9.45928 13.892 9.33661 13.9687C9.41395 14.074 9.49795 14.1747 9.58661 14.2707ZM13.8239 14.7607C13.9006 14.7087 13.9813 14.6627 14.0539 14.6047C13.8866 14.5247 13.6093 14.4067 13.4206 14.4067C13.1353 14.4067 13.0626 14.5627 12.7499 14.5627C12.4373 14.5627 12.2993 14.3853 11.9879 14.3853C11.6766 14.3853 11.5713 14.6147 11.2753 14.6147C10.9793 14.6147 10.8539 14.3647 10.4893 14.3647C10.2753 14.3647 10.0239 14.454 9.85128 14.528C9.95061 14.6147 10.0613 14.686 10.1706 14.7607H13.8239ZM12.7606 14.9373C12.4066 14.9373 12.2399 15.2393 11.9999 15.2393C11.7599 15.2393 11.5506 14.9267 11.2753 14.9267C11.1099 14.9267 10.9166 15.0187 10.7819 15.0933C11.1586 15.2453 11.5673 15.3333 11.9999 15.3333C12.4189 15.3314 12.8336 15.2478 13.2206 15.0873C13.0993 15.0127 12.9359 14.9373 12.7606 14.9373Z" fill="#083E9D"/>
<path d="M9.85129 11.118L8.91863 10.7353C8.82244 10.9767 8.7553 11.2287 8.71863 11.486L9.85129 11.5673V11.118ZM10.5313 11.3973V11.616L11.164 11.6613V11.6567L10.5313 11.3973ZM14.0666 11.5653L15.2806 11.478C15.2417 11.2087 15.1698 10.9451 15.0666 10.6933L14.0666 11.104V11.5653ZM13.4206 11.3693L12.852 11.6027L12.854 11.652L13.4206 11.6113V11.3693ZM14.462 9.76999L14.0666 10.1153V10.6787L14.8306 10.2787C14.7248 10.0974 14.6013 9.92701 14.462 9.76999ZM13.4206 10.6787L12.8373 11.1873L12.842 11.32L13.4206 11.0167V10.6787ZM11.154 11.2807L10.5313 10.7373V11.1173L11.1586 11.4487L11.154 11.2807ZM9.85129 10.1447L9.48929 9.82933C9.34706 9.99651 9.22178 10.1774 9.11529 10.3693L9.85129 10.758V10.1447ZM13.4206 10.136C13.4206 10.0347 13.558 9.97599 13.7053 9.96199L14.1653 9.48533C14.0015 9.34569 13.8252 9.2214 13.6386 9.11399L12.8193 10.532C12.8213 10.6467 12.8253 10.7593 12.8286 10.872L13.4213 10.2573L13.4206 10.136ZM10.5313 10.0107V10.3173L11.1453 10.9853L11.136 10.654L10.2733 9.16199C10.1039 9.26619 9.94336 9.38415 9.79329 9.51466L10.1513 9.90399C10.3333 9.88066 10.5313 9.90933 10.5313 10.0107ZM12.814 9.91333L13.2746 8.93466C13.0979 8.85718 12.9144 8.79582 12.7266 8.75133L12.542 9.49999C12.542 9.49999 12.9306 9.51399 12.8473 9.52799C12.8253 9.53133 12.816 9.68733 12.814 9.91333ZM11.0846 8.80999C10.944 8.85066 10.8133 8.91133 10.6813 8.96866L11.116 9.94333L11.0846 8.80999ZM9.85129 11.9247L8.67729 11.8933C8.67329 11.9287 8.66663 11.9633 8.66663 12C8.66663 12.132 8.68796 12.2587 8.70529 12.3853H9.85129V11.9247ZM14.0666 12.3853H15.2946C15.312 12.2587 15.3333 12.132 15.3333 12C15.3333 11.9633 15.3266 11.9287 15.3226 11.8933L14.0666 11.9393V12.3853Z" fill="#FF9D11"/>
<path d="M10.0314 10.198V12.5833C10.0314 12.906 10.2087 13.6773 10.7187 13.6773C11.4167 13.6773 11.6427 12.8127 11.6427 12.8127C11.6427 12.8127 11.1394 13.2553 10.782 13.1147C10.4247 12.974 10.4 12.7607 10.4 12.292V10.2573C10.4007 10.0727 10.0314 10.0313 10.0314 10.198ZM13.9347 10.198V12.5833C13.9347 12.906 13.7574 13.6773 13.2474 13.6773C12.5494 13.6773 12.3234 12.8127 12.3234 12.8127C12.3234 12.8127 12.8267 13.2553 13.1834 13.1147C13.5407 12.974 13.5654 12.7607 13.5654 12.292V10.2573C13.566 10.0727 13.9347 10.0313 13.9347 10.198ZM12.5414 11.5293L11.3434 11.162V9.25C11.3434 8.68733 11.774 8.41 12.5414 8.67733C11.8747 8.74 11.6627 9.30133 12.5414 9.71866V11.5293Z" fill="#CE1126"/>
<path d="M13.3334 12.474C13.3334 12.5227 13.2934 12.5627 13.2447 12.5627H10.672C10.6486 12.5625 10.6261 12.5531 10.6095 12.5365C10.5929 12.5199 10.5835 12.4975 10.5834 12.474C10.5834 12.4253 10.6234 12.3853 10.672 12.3853H13.2447C13.2934 12.3853 13.3334 12.4253 13.3334 12.474ZM11.344 12.942H10.7487L11.004 12.604H11.5994L11.344 12.942ZM12.5794 12.942H13.1747L12.9194 12.604H12.3234L12.5794 12.942ZM11.1054 12.198L10.9567 12.036L11.1047 11.8747C11.1314 11.846 11.1214 11.8067 11.082 11.7873C11.0434 11.768 10.9894 11.776 10.9627 11.8053L10.8954 11.878V11.7787C10.8954 11.7553 10.8767 11.7367 10.8534 11.7367C10.83 11.7367 10.8114 11.7553 10.8114 11.7787V11.878L10.7447 11.8053C10.718 11.776 10.664 11.768 10.6254 11.7873C10.586 11.8067 10.576 11.846 10.6027 11.8747L10.7507 12.036L10.602 12.198C10.5754 12.2267 10.586 12.266 10.6247 12.286C10.664 12.3047 10.7167 12.2967 10.744 12.2673L10.8534 12.148L10.9627 12.2673C10.99 12.2967 11.0434 12.3047 11.082 12.286C11.1214 12.266 11.1314 12.2267 11.1054 12.198ZM11.6574 12.198L11.5087 12.036L11.6567 11.8747C11.6834 11.846 11.6734 11.8067 11.634 11.7873C11.5954 11.768 11.5414 11.776 11.5147 11.8053L11.4474 11.878V11.7787C11.4474 11.7553 11.4287 11.7367 11.4054 11.7367C11.382 11.7367 11.3634 11.7553 11.3634 11.7787V11.878L11.2967 11.8053C11.27 11.776 11.216 11.768 11.1774 11.7873C11.138 11.8067 11.128 11.846 11.1547 11.8747L11.3027 12.036L11.154 12.198C11.1274 12.2267 11.138 12.266 11.1767 12.286C11.216 12.3047 11.2687 12.2967 11.296 12.2673L11.4054 12.148L11.5147 12.2673C11.542 12.2967 11.5954 12.3047 11.634 12.286C11.6734 12.266 11.684 12.2267 11.6574 12.198ZM12.21 12.198L12.0614 12.036L12.2094 11.8747C12.236 11.846 12.226 11.8067 12.1867 11.7873C12.148 11.768 12.094 11.776 12.0674 11.8053L12 11.8787V11.7793C12 11.756 11.9814 11.7373 11.958 11.7373C11.9347 11.7373 11.916 11.756 11.916 11.7793V11.8787L11.8494 11.806C11.8227 11.7767 11.7687 11.7687 11.73 11.788C11.6907 11.8073 11.6807 11.8467 11.7074 11.8753L11.8554 12.0367L11.7067 12.1987C11.68 12.2273 11.6907 12.2667 11.7294 12.2867C11.7687 12.3053 11.8214 12.2973 11.8487 12.268L11.958 12.1487L12.0674 12.268C12.0947 12.2973 12.148 12.3053 12.1867 12.2867C12.226 12.266 12.2367 12.2267 12.21 12.198ZM12.764 12.198L12.6154 12.036L12.7634 11.8747C12.79 11.846 12.78 11.8067 12.7407 11.7873C12.702 11.768 12.648 11.776 12.6214 11.8053L12.554 11.878V11.7787C12.554 11.7553 12.5354 11.7367 12.512 11.7367C12.4887 11.7367 12.47 11.7553 12.47 11.7787V11.878L12.4034 11.8053C12.3767 11.776 12.3227 11.768 12.284 11.7873C12.2447 11.8067 12.2347 11.846 12.2614 11.8747L12.4094 12.036L12.2607 12.198C12.234 12.2267 12.2447 12.266 12.2834 12.286C12.3227 12.3047 12.3754 12.2967 12.4027 12.2673L12.512 12.148L12.6214 12.2673C12.6487 12.2967 12.702 12.3047 12.7407 12.286C12.78 12.266 12.7907 12.2267 12.764 12.198ZM13.316 12.198L13.1674 12.036L13.3154 11.8747C13.342 11.846 13.332 11.8067 13.2927 11.7873C13.254 11.768 13.2 11.776 13.1734 11.8053L13.106 11.878V11.7787C13.106 11.7553 13.0874 11.7367 13.064 11.7367C13.0407 11.7367 13.022 11.7553 13.022 11.7787V11.878L12.9554 11.8053C12.9287 11.776 12.8747 11.768 12.836 11.7873C12.7967 11.8067 12.7867 11.846 12.8134 11.8747L12.9614 12.036L12.8127 12.198C12.786 12.2267 12.7967 12.266 12.8354 12.286C12.8747 12.3047 12.9274 12.2967 12.9547 12.2673L13.064 12.148L13.1734 12.2673C13.2007 12.2967 13.254 12.3047 13.2927 12.286C13.332 12.266 13.3427 12.2267 13.316 12.198Z" fill="#630810"/>
</svg>
