<svg width="24" height="24" viewBox="0 0 24 24" fill="none" xmlns="http://www.w3.org/2000/svg">
<path d="M0 9H24V14.25H0V9Z" fill="#E6E7E8"/>
<path d="M20.25 3.375H3.75C1.26488 3.375 0 5.22188 0 7.5V9H24V7.5C24 5.22188 22.7351 3.375 20.25 3.375Z" fill="#FF9933"/>
<path d="M0 15.75C0 18.0281 1.26488 19.875 3.75 19.875H20.25C22.7351 19.875 24 18.0281 24 15.75V14.25H0V15.75Z" fill="#128807"/>
<path fill-rule="evenodd" clip-rule="evenodd" d="M12.1162 9.21863C12.5953 9.21863 13.0637 9.36076 13.4621 9.62703C13.8604 9.8933 14.1708 10.2717 14.354 10.7145C14.5372 11.1572 14.5849 11.6443 14.4911 12.1142C14.3974 12.5841 14.1664 13.0156 13.8273 13.3541C13.4883 13.6927 13.0564 13.923 12.5864 14.0161C12.1163 14.1091 11.6293 14.0606 11.1868 13.8767C10.7444 13.6928 10.3664 13.3818 10.1008 12.9831C9.83512 12.5844 9.69372 12.1158 9.69446 11.6366C9.69555 10.995 9.95117 10.3801 10.4052 9.92673C10.8592 9.47339 11.4746 9.21873 12.1162 9.21863ZM10.5018 10.2668C10.5435 10.314 10.551 10.3646 10.5232 10.407C10.5115 10.4265 10.4933 10.4414 10.4718 10.449C10.4554 10.4551 10.4376 10.4572 10.4202 10.4549C10.4028 10.4527 10.3861 10.4463 10.3717 10.4363C10.3065 10.5296 10.2492 10.6282 10.2003 10.731C10.257 10.7681 10.2757 10.8146 10.257 10.866C10.2469 10.8922 10.2271 10.9134 10.2017 10.9251C10.1763 10.9369 10.1473 10.9383 10.1208 10.929C10.0938 10.983 10.0342 11.211 10.0335 11.259C10.0583 11.2638 10.0806 11.2772 10.0965 11.2969C10.1132 11.3164 10.1218 11.3417 10.1205 11.3674C10.1133 11.4379 10.0698 11.4679 10.0035 11.4705C9.99296 11.5384 9.99409 11.7656 10.0046 11.8103C10.0751 11.8178 10.1122 11.8485 10.1182 11.9021C10.1265 11.9599 10.0987 11.9974 10.0312 12.0236C10.0515 12.135 10.0803 12.2445 10.1182 12.3518C10.1446 12.3438 10.173 12.3447 10.1988 12.3544C10.224 12.3653 10.2438 12.384 10.2543 12.4099C10.2637 12.4301 10.2656 12.4511 10.2607 12.4733C10.2572 12.4897 10.2499 12.5051 10.2395 12.5182C10.229 12.5314 10.2156 12.5419 10.2003 12.549C10.2506 12.6533 10.3061 12.7515 10.3717 12.8438C10.4302 12.8149 10.4812 12.8216 10.5157 12.8629C10.5309 12.8798 10.5395 12.9016 10.5401 12.9244C10.5413 12.9412 10.5383 12.958 10.5315 12.9734C10.5247 12.9889 10.5143 13.0024 10.5011 13.0129C10.5761 13.1006 10.656 13.1809 10.743 13.2548C10.7921 13.2116 10.8431 13.2049 10.887 13.2356C10.9068 13.2495 10.9207 13.2679 10.9271 13.2904C10.9317 13.3063 10.9326 13.3231 10.9299 13.3394C10.9272 13.3558 10.9208 13.3713 10.9113 13.3849C11.0062 13.4501 11.1041 13.5064 11.2065 13.5551C11.2462 13.4993 11.2916 13.4805 11.3407 13.4993C11.3621 13.5069 11.3807 13.5209 11.394 13.5394C11.4127 13.5694 11.4153 13.6024 11.4045 13.6376C11.5125 13.6759 11.6212 13.7051 11.7337 13.725C11.7558 13.6616 11.7941 13.632 11.8451 13.6358C11.8687 13.6376 11.8901 13.6448 11.9088 13.6609C11.9351 13.6849 11.9475 13.7153 11.9452 13.7528C12.0607 13.761 12.1736 13.7618 12.2857 13.7528C12.294 13.6804 12.3228 13.644 12.381 13.6358C12.403 13.6327 12.4255 13.6372 12.4447 13.6485C12.4588 13.6564 12.4708 13.6674 12.48 13.6807C12.4893 13.6939 12.4954 13.7091 12.498 13.725C12.6112 13.704 12.7211 13.6751 12.8272 13.6373C12.8178 13.5664 12.8351 13.524 12.8827 13.5019C12.9001 13.4944 12.919 13.4915 12.9378 13.4933C12.9573 13.4948 12.975 13.5008 12.9892 13.5135C13.0031 13.5251 13.0147 13.5394 13.0282 13.554C13.1304 13.5058 13.2285 13.4492 13.3215 13.3849C13.2832 13.3249 13.3057 13.2675 13.3368 13.242C13.3477 13.2327 13.3603 13.2256 13.3739 13.2213C13.3875 13.2169 13.4018 13.2153 13.4161 13.2165C13.4303 13.2177 13.4442 13.2217 13.4569 13.2284C13.4695 13.235 13.4807 13.2441 13.4898 13.2551C13.5765 13.1809 13.6578 13.1003 13.7306 13.0136C13.6882 12.9653 13.68 12.9143 13.7111 12.8704C13.7237 12.8507 13.743 12.8363 13.7655 12.8299C13.7815 12.8248 13.7984 12.8235 13.815 12.826C13.8316 12.8286 13.8473 12.8349 13.8611 12.8445C13.9267 12.75 13.9837 12.6521 14.0325 12.5494C13.9777 12.5126 13.9578 12.4695 13.9743 12.4204C13.9803 12.3985 13.9935 12.3794 14.0118 12.366C14.0264 12.3558 14.0431 12.3492 14.0607 12.3466C14.0783 12.344 14.0962 12.3455 14.1131 12.351C14.1375 12.2981 14.1982 12.0754 14.2016 12.0214C14.1756 12.0167 14.1522 12.0028 14.1356 11.9824C14.1268 11.9723 14.1203 11.9604 14.1164 11.9476C14.1124 11.9349 14.1112 11.9214 14.1127 11.9081C14.1141 11.8844 14.124 11.8619 14.1405 11.8448C14.1517 11.8329 14.1656 11.8237 14.1809 11.8178C14.1962 11.812 14.2126 11.8096 14.229 11.811C14.2383 11.6976 14.2383 11.5836 14.229 11.4701C14.1573 11.463 14.1232 11.4353 14.1138 11.3786C14.1096 11.3572 14.1128 11.335 14.1228 11.3156C14.1306 11.3006 14.1417 11.2877 14.1553 11.2777C14.1689 11.2677 14.1846 11.2611 14.2012 11.2583C14.1815 11.1462 14.1523 11.0361 14.1138 10.929C14.0445 10.9406 14.0017 10.9219 13.9788 10.8739C13.9729 10.861 13.9696 10.8472 13.9691 10.833C13.9686 10.8189 13.9709 10.8048 13.9759 10.7916C13.9808 10.7783 13.9884 10.7662 13.9981 10.756C14.0079 10.7457 14.0195 10.7375 14.0325 10.7318C13.9839 10.6287 13.9265 10.5299 13.8611 10.4366C13.8007 10.4655 13.7516 10.4588 13.7171 10.4175C13.7018 10.4001 13.6932 10.3777 13.6931 10.3545C13.6924 10.338 13.6955 10.3216 13.7023 10.3066C13.7091 10.2915 13.7193 10.2783 13.7321 10.2679C13.658 10.1812 13.5774 10.1003 13.491 10.026C13.4392 10.0703 13.389 10.0759 13.3462 10.0451C13.3268 10.0322 13.3126 10.0128 13.3061 9.99038C13.3014 9.97464 13.3004 9.95805 13.3031 9.94187C13.3059 9.92568 13.3123 9.91034 13.3218 9.897C13.2284 9.83184 13.1296 9.77452 13.0267 9.72563C12.9881 9.78113 12.9446 9.7995 12.8955 9.783C12.8737 9.77604 12.8547 9.76239 12.8411 9.744C12.8312 9.72937 12.8249 9.71261 12.8227 9.69509C12.8204 9.67756 12.8224 9.65976 12.8283 9.64313C12.7213 9.60444 12.6112 9.5752 12.4991 9.55575C12.4777 9.6165 12.4391 9.648 12.3892 9.645C12.3659 9.64425 12.3435 9.63582 12.3255 9.621C12.3121 9.60973 12.3017 9.59537 12.2951 9.57917C12.2885 9.56297 12.2859 9.54541 12.2876 9.528C12.1743 9.51837 12.0604 9.5185 11.9471 9.52838C11.9392 9.59588 11.91 9.6345 11.8601 9.64275C11.8377 9.64754 11.8143 9.64463 11.7937 9.6345C11.7784 9.62691 11.7651 9.61578 11.7549 9.60202C11.7447 9.58826 11.738 9.57227 11.7352 9.55538C11.6231 9.57577 11.5129 9.60524 11.4056 9.6435C11.4176 9.70988 11.3988 9.75338 11.3531 9.777C11.3332 9.78713 11.3122 9.79125 11.289 9.78713C11.2715 9.78475 11.2549 9.77786 11.2409 9.76714C11.2269 9.75642 11.216 9.74225 11.2091 9.726C11.145 9.75 10.941 9.86813 10.914 9.89775C10.9417 9.95325 10.9353 10.0024 10.8971 10.0376C10.8863 10.0472 10.8737 10.0545 10.86 10.059C10.8463 10.0636 10.8319 10.0654 10.8175 10.0643C10.8031 10.0631 10.7891 10.0591 10.7763 10.0525C10.7635 10.0459 10.7522 10.0367 10.743 10.0256C10.6564 10.0996 10.5758 10.1802 10.5018 10.2668Z" fill="#010088"/>
<path fill-rule="evenodd" clip-rule="evenodd" d="M13.155 13.4351C13.1505 13.4302 13.146 13.4269 13.1426 13.4216C12.9246 13.0883 12.7059 12.7555 12.4867 12.423C12.4818 12.4136 12.4762 12.4042 12.4717 12.3937C12.4207 12.2749 12.3708 12.156 12.3187 12.0375C12.317 12.0314 12.3146 12.0255 12.3116 12.0199C12.2906 12.0278 12.2715 12.0367 12.249 12.0454L12.2565 12.0645C12.3033 12.1796 12.3483 12.2951 12.396 12.4103C12.4087 12.441 12.414 12.4732 12.4207 12.5055C12.4575 12.6776 12.492 12.8505 12.5291 13.023L12.6558 13.6391C12.6565 13.6406 12.6567 13.6422 12.6565 13.6438C12.6563 13.6454 12.6557 13.6469 12.6547 13.6481L12.6495 13.635C12.5467 13.3204 12.4413 13.0061 12.3382 12.6915C12.3176 12.63 12.2992 12.5692 12.2767 12.5077C12.2662 12.477 12.2628 12.4455 12.258 12.4136C12.2448 12.3244 12.2336 12.2344 12.219 12.1451C12.2171 12.1237 12.2137 12.1028 12.2107 12.0821C12.2098 12.0736 12.2084 12.065 12.2066 12.0566C12.1841 12.0589 12.1635 12.0619 12.141 12.0645C12.141 12.0735 12.1417 12.0829 12.1425 12.0922C12.1556 12.2021 12.1668 12.3124 12.1826 12.4219C12.1908 12.4819 12.1867 12.5407 12.1833 12.6007C12.1811 12.6514 12.1777 12.702 12.1755 12.753C12.1687 12.8557 12.1635 12.9581 12.1563 13.0605L12.1451 13.272C12.1387 13.392 12.1312 13.5116 12.1248 13.6309C12.1218 13.6646 12.1211 13.6991 12.1177 13.7321L12.1087 13.6185L12.0971 13.3725L12.0836 13.1531C12.0798 13.0781 12.075 13.0035 12.0708 12.9285C12.0675 12.8794 12.0656 12.8302 12.0626 12.7819C12.0585 12.7042 12.0536 12.6266 12.0498 12.5497C12.0461 12.5088 12.0471 12.4675 12.0528 12.4267C12.0607 12.3712 12.0667 12.3146 12.0735 12.2584C12.081 12.2029 12.0873 12.147 12.0941 12.0922C12.0948 12.0836 12.0948 12.0746 12.096 12.0645L12.0303 12.0559C12.0285 12.0709 12.0251 12.0855 12.0225 12.1005C12.0069 12.2151 11.9909 12.3296 11.9745 12.444C11.97 12.4886 11.9523 12.5299 11.9373 12.5715C11.8218 12.9232 11.706 13.2754 11.589 13.6268C11.5863 13.6331 11.5852 13.6391 11.5803 13.6451C11.5803 13.6406 11.5803 13.6372 11.5822 13.6331C11.6306 13.3961 11.6793 13.1587 11.7296 12.9217C11.7618 12.7642 11.7952 12.6071 11.8271 12.45L11.8361 12.4241C11.8845 12.3052 11.931 12.1852 11.9805 12.0664C11.9822 12.0594 11.9847 12.0526 11.988 12.0461C11.9673 12.0373 11.9466 12.0286 11.9257 12.0202C11.9231 12.027 11.919 12.0326 11.9167 12.0394C11.865 12.1586 11.8143 12.2783 11.7626 12.3975C11.7594 12.4065 11.7553 12.4151 11.7506 12.4234C11.5293 12.7586 11.3087 13.0942 11.0887 13.4302C11.0857 13.4353 11.0817 13.4398 11.0771 13.4434C11.079 13.4374 11.0823 13.4325 11.0846 13.4272L11.6268 12.3521C11.6315 12.3424 11.6373 12.3332 11.6441 12.3247L11.8758 12.0139C11.8807 12.0086 11.8837 12.0037 11.8882 11.9981C11.8691 11.9842 11.8537 11.9715 11.8346 11.9569C11.8305 11.9617 11.8267 11.9659 11.8233 11.9707C11.7423 12.0724 11.6625 12.1747 11.5833 12.276C11.5743 12.2854 11.5661 12.2951 11.556 12.3038C11.2605 12.5681 10.965 12.831 10.6683 13.0957C10.6623 13.1006 10.6563 13.1059 10.6488 13.1092C10.6522 13.1059 10.6541 13.1017 10.6563 13.0991C10.8997 12.8272 11.1412 12.5557 11.3835 12.2839C11.3973 12.2689 11.4112 12.2539 11.4243 12.2377C11.4521 12.2055 11.4832 12.177 11.517 12.1515L11.7862 11.9396C11.7922 11.9351 11.7967 11.9302 11.8035 11.9257C11.7902 11.9078 11.7764 11.8902 11.7622 11.8729C11.7562 11.8766 11.7513 11.8804 11.7457 11.8845C11.6426 11.9617 11.5391 12.0382 11.436 12.1159C11.4244 12.1246 11.4121 12.1322 11.3992 12.1387C11.0471 12.3165 10.6931 12.4942 10.3402 12.672C10.3335 12.675 10.3271 12.6788 10.3192 12.6788L10.3335 12.6686L10.992 12.2374C11.1067 12.162 11.2218 12.0866 11.3358 12.0109C11.3456 12.0052 11.3557 12.0004 11.3643 11.9959C11.484 11.9452 11.6032 11.8942 11.7217 11.8432C11.7273 11.841 11.733 11.8387 11.7397 11.8354L11.7146 11.7735C11.7075 11.7754 11.703 11.7772 11.6973 11.7791C11.5758 11.8275 11.4555 11.8766 11.3332 11.9246C11.3081 11.934 11.2807 11.9385 11.2541 11.9441L10.4347 12.1144C10.3316 12.1365 10.2266 12.1582 10.1231 12.1796C10.1189 12.1806 10.1145 12.1801 10.1107 12.1781C10.1392 12.1691 10.1677 12.159 10.1958 12.1496C10.5498 12.033 10.9035 11.9167 11.2563 11.7994C11.2841 11.79 11.3137 11.7874 11.3418 11.7829C11.4558 11.7671 11.5695 11.7506 11.6823 11.7345C11.6893 11.7333 11.6961 11.7318 11.703 11.73C11.7007 11.7082 11.6973 11.6865 11.6955 11.664L11.6407 11.67L11.4142 11.6974C11.3718 11.703 11.3298 11.7075 11.2882 11.7127C11.2781 11.7139 11.2683 11.7142 11.2586 11.7139L11.0201 11.7L10.8791 11.6921L10.6361 11.6779L10.2817 11.6584C10.1962 11.6539 10.113 11.6482 10.0278 11.6422C10.0413 11.6411 10.0563 11.6389 10.071 11.6389L10.3616 11.6224L10.7456 11.6006L11.0636 11.5826L11.2631 11.5706C11.271 11.5702 11.2803 11.5714 11.2882 11.5721L11.517 11.5995L11.679 11.619H11.6955C11.6973 11.5976 11.7007 11.5774 11.703 11.5541C11.6891 11.5511 11.6733 11.5489 11.6595 11.5462C11.5593 11.5324 11.46 11.5177 11.3598 11.5031C11.339 11.5007 11.3183 11.498 11.2976 11.4949C11.2861 11.4933 11.2748 11.4907 11.2638 11.487C10.9657 11.3891 10.6695 11.2905 10.3717 11.1926C10.2888 11.1655 10.2061 11.138 10.1235 11.1101C10.1163 11.1082 10.1096 11.1051 10.1036 11.1007L10.1557 11.1112L10.7921 11.2436C10.9623 11.2792 11.1352 11.3145 11.3055 11.3505C11.3157 11.3528 11.3257 11.3559 11.3355 11.3599C11.4555 11.4071 11.5743 11.4559 11.6955 11.5039L11.7135 11.511C11.7217 11.4904 11.7307 11.4705 11.7397 11.4491C11.7336 11.4455 11.7272 11.4423 11.7206 11.4397C11.6013 11.3895 11.4825 11.3381 11.3636 11.2867C11.3543 11.2828 11.3452 11.2782 11.3366 11.2729C11.0002 11.0527 10.6653 10.8315 10.3286 10.611C10.3241 10.6085 10.3206 10.6047 10.3185 10.6001L10.332 10.6076C10.6672 10.7764 11.0028 10.9451 11.3388 11.1135C11.3943 11.1412 11.4483 11.1746 11.4978 11.2125C11.5796 11.2759 11.6628 11.3366 11.7461 11.3989C11.7517 11.403 11.7566 11.4067 11.7626 11.4105L11.8038 11.3584L11.7892 11.3456L11.4843 11.106C11.4738 11.0977 11.4656 11.0891 11.4566 11.0801C11.1911 10.7827 10.9252 10.485 10.6605 10.1876C10.6566 10.1846 10.6537 10.1806 10.6518 10.176C10.6597 10.1767 10.6627 10.182 10.6661 10.1854C10.827 10.3279 10.9863 10.4704 11.1461 10.6129L11.5593 10.9811C11.5668 10.9879 11.574 10.9961 11.5807 11.0036L11.8173 11.3044C11.8233 11.3111 11.8278 11.3182 11.8346 11.3272L11.889 11.2856C11.8856 11.2804 11.8811 11.2762 11.8785 11.2714C11.8012 11.1682 11.7243 11.0647 11.6463 10.962C11.6383 10.9499 11.6309 10.9374 11.6242 10.9245C11.4442 10.5701 11.2657 10.2142 11.0868 9.8595C11.0835 9.85275 11.0801 9.8475 11.0793 9.84037C11.0827 9.84412 11.0861 9.8475 11.0883 9.85087L11.4716 10.4366L11.7427 10.8491C11.7521 10.8649 11.7626 10.8814 11.7686 10.8986C11.8192 11.0141 11.868 11.13 11.9171 11.2455C11.9205 11.2507 11.9227 11.2564 11.9261 11.2631L11.9883 11.2372L11.9816 11.2215C11.9347 11.1045 11.889 10.9875 11.8413 10.8712C11.8282 10.8416 11.8233 10.8109 11.817 10.7801C11.7761 10.5847 11.7367 10.389 11.6958 10.1932C11.6557 10.005 11.6175 9.81825 11.5781 9.62925C11.5773 9.62812 11.5781 9.62662 11.5796 9.62287L11.6126 9.723C11.7303 10.0766 11.847 10.431 11.9625 10.7854C11.9722 10.8131 11.9756 10.8435 11.9797 10.8724C11.9936 10.9706 12.0075 11.0696 12.0232 11.1686C12.0258 11.1874 12.027 11.2061 12.0307 11.2267L12.096 11.2185V11.1937C12.0866 11.1154 12.0765 11.0366 12.0675 10.9586C12.0618 10.9129 12.0577 10.8682 12.0513 10.8236C12.0476 10.7936 12.0476 10.7633 12.0513 10.7332C12.054 10.6822 12.0577 10.6316 12.06 10.581L12.0783 10.2754C12.0817 10.2206 12.0828 10.1651 12.0862 10.1104C12.0911 10.0391 12.0948 9.96675 12.099 9.89512C12.1023 9.84262 12.105 9.78975 12.1072 9.73762C12.1102 9.67575 12.1151 9.61425 12.1203 9.55275C12.1218 9.56962 12.1226 9.58687 12.1233 9.60487C12.1286 9.68025 12.1323 9.75562 12.1368 9.83137L12.1563 10.1749L12.168 10.3676C12.174 10.479 12.1792 10.5907 12.1856 10.7021C12.1875 10.719 12.1882 10.7347 12.1893 10.7512C12.1942 10.7947 12.1856 10.8379 12.1818 10.881L12.1578 11.0775C12.1541 11.1146 12.1485 11.1517 12.144 11.1892C12.1432 11.1982 12.1432 11.208 12.1406 11.2189C12.1638 11.2222 12.1848 11.2245 12.2081 11.2275C12.2115 11.2114 12.213 11.1964 12.2156 11.1806C12.2336 11.0587 12.2508 10.9369 12.2681 10.8142C12.2696 10.8052 12.2733 10.7959 12.2756 10.7865C12.3978 10.4197 12.5178 10.0526 12.6393 9.68512C12.6453 9.66825 12.6498 9.65212 12.6592 9.636C12.6582 9.64455 12.6568 9.65306 12.6551 9.6615C12.6003 9.927 12.5433 10.1917 12.489 10.4565C12.4646 10.5806 12.4387 10.7051 12.4128 10.8292C12.411 10.8395 12.4077 10.8495 12.4031 10.8589L12.2583 11.2207C12.2557 11.226 12.2538 11.2316 12.2512 11.2384C12.2737 11.247 12.2921 11.2556 12.3138 11.2642L12.3225 11.2462L12.4736 10.8911C12.4796 10.8791 12.4841 10.8675 12.492 10.8577L13.1463 9.8595C13.1505 9.85425 13.1538 9.849 13.1602 9.84525C13.1576 9.8505 13.1557 9.85575 13.1523 9.861L12.6142 10.9297C12.6086 10.9399 12.603 10.95 12.5962 10.959C12.5182 11.0629 12.4398 11.1667 12.363 11.2699C12.3592 11.2758 12.3551 11.2814 12.3506 11.2867L12.4038 11.3284C12.408 11.3239 12.4119 11.3191 12.4155 11.3141C12.495 11.2129 12.5741 11.1112 12.6547 11.01C12.6636 10.9986 12.6735 10.9881 12.6843 10.9785C12.9806 10.7137 13.2772 10.4494 13.5738 10.1854C13.5787 10.1812 13.5821 10.1771 13.59 10.1749L13.5802 10.1869C13.4591 10.3237 13.338 10.4599 13.215 10.596C13.0687 10.7591 12.9243 10.9219 12.7792 11.085C12.7717 11.0932 12.7627 11.1004 12.7548 11.1071L12.45 11.3467L12.435 11.3587C12.4492 11.3767 12.462 11.394 12.477 11.412L12.4931 11.4L12.8055 11.166C12.8134 11.1603 12.8217 11.1551 12.8302 11.1502C13.1902 10.9695 13.548 10.7895 13.9057 10.6087C13.9117 10.6061 13.9166 10.6039 13.923 10.6039C13.9065 10.6147 13.8911 10.6252 13.8746 10.6354C13.551 10.848 13.2273 11.0606 12.9026 11.2732C12.8936 11.2785 12.8853 11.2837 12.8756 11.2879C12.756 11.3396 12.6352 11.3906 12.5167 11.442L12.4976 11.4495C12.5077 11.4705 12.5148 11.4904 12.5238 11.5114L12.5411 11.5057C12.6615 11.4581 12.7811 11.4082 12.9026 11.3621C12.9326 11.3501 12.9656 11.3449 12.9982 11.3381L13.5506 11.2234C13.7223 11.1881 13.8926 11.1521 14.0647 11.1165C14.0805 11.1131 14.0951 11.1097 14.1116 11.1067C14.1157 11.1067 14.1195 11.106 14.1255 11.1082L14.073 11.1255C13.7066 11.2466 13.3413 11.3674 12.975 11.487C12.9472 11.4967 12.9165 11.4994 12.8876 11.5039C12.8055 11.5162 12.7245 11.5271 12.6446 11.5387C12.6153 11.5429 12.5865 11.5474 12.5572 11.5511L12.5358 11.5549C12.5381 11.577 12.5415 11.5976 12.543 11.6216L12.5996 11.6156L12.8021 11.5916C12.8527 11.5852 12.9056 11.5781 12.9585 11.5732C12.9821 11.5714 13.0061 11.5736 13.0305 11.5747C13.0818 11.577 13.1332 11.5815 13.1868 11.5837L13.4898 11.6017C13.5348 11.6044 13.5798 11.6062 13.6263 11.6092L13.9353 11.6269C14.0085 11.6314 14.0838 11.6347 14.1566 11.6392C14.1746 11.6403 14.1926 11.6419 14.2106 11.6441L14.1558 11.6486L13.929 11.661L13.6481 11.6775L13.4362 11.6887C13.3387 11.6947 13.2393 11.7004 13.1411 11.7067C13.0871 11.709 13.0316 11.7142 12.9772 11.7146C12.9461 11.7154 12.9135 11.7094 12.8831 11.706C12.8164 11.6982 12.7498 11.6902 12.6832 11.682L12.5553 11.6666H12.543C12.5415 11.6884 12.5381 11.7097 12.5358 11.7326C12.668 11.7522 12.8003 11.7713 12.9326 11.79C12.9716 11.7949 13.0057 11.8102 13.0425 11.8219L14.109 12.174C14.1159 12.1755 14.1224 12.1784 14.1281 12.1826C14.1191 12.1811 14.1105 12.1796 14.1015 12.1789L13.1752 11.9857L12.9307 11.9347C12.9228 11.9325 12.9123 11.9295 12.9037 11.9254C12.7833 11.8777 12.6626 11.829 12.5415 11.7806L12.5253 11.775C12.5166 11.7955 12.5074 11.8159 12.498 11.8361L12.5178 11.8455C12.6375 11.8965 12.7563 11.9471 12.8752 11.9985C12.8846 12.0026 12.894 12.0075 12.9037 12.0142L13.902 12.6683C13.9068 12.672 13.9132 12.6765 13.9173 12.6836C13.9125 12.6806 13.9068 12.6787 13.9027 12.6757L13.3826 12.4147C13.2011 12.3225 13.0181 12.231 12.8347 12.1387C12.823 12.133 12.8121 12.1258 12.8021 12.1174C12.699 12.0405 12.5947 11.9632 12.4916 11.8856C12.487 11.8817 12.4821 11.8782 12.477 11.8751C12.4627 11.8924 12.45 11.9092 12.435 11.9272L12.4492 11.9385C12.5497 12.0187 12.6521 12.099 12.753 12.1789C12.7644 12.1871 12.7749 12.1967 12.7841 12.2074L13.5787 13.0965C13.5819 13.101 13.5845 13.1059 13.5862 13.1111C13.5821 13.1066 13.5765 13.1036 13.5723 13.1002C13.2742 12.8336 12.9757 12.5685 12.6768 12.3022C12.6701 12.2962 12.664 12.2894 12.6588 12.282L12.4158 11.9722C12.4125 11.9674 12.4083 11.9629 12.4042 11.958C12.387 11.9722 12.3701 11.985 12.3528 12C12.3543 12.0045 12.3577 12.0094 12.3607 12.0139L12.5966 12.3281C12.6033 12.3373 12.6093 12.3469 12.6146 12.357C12.7935 12.7117 12.972 13.0672 13.1505 13.4224C13.1534 13.4272 13.1553 13.4326 13.1561 13.4381H13.155V13.4351Z" fill="#010088"/>
<path fill-rule="evenodd" clip-rule="evenodd" d="M13.1512 13.4351C13.155 13.4389 13.1572 13.443 13.1602 13.4464C13.1584 13.4471 13.1584 13.4483 13.1561 13.4486C13.1554 13.4434 13.1527 13.44 13.152 13.4351H13.1512Z" fill="#010088"/>
</svg>
