<svg width="17" height="17" viewBox="0 0 17 17" fill="none" xmlns="http://www.w3.org/2000/svg">
<path d="M0 4C0 3.06812 0 2.60218 0.152241 2.23463C0.355229 1.74458 0.744577 1.35523 1.23463 1.15224C1.60218 1 2.06812 1 3 1C3.93188 1 4.39782 1 4.76537 1.15224C5.25542 1.35523 5.64477 1.74458 5.84776 2.23463C6 2.60218 6 3.06812 6 4C6 4.93188 6 5.39782 5.84776 5.76537C5.64477 6.25542 5.25542 6.64477 4.76537 6.84776C4.39782 7 3.93188 7 3 7C2.06812 7 1.60218 7 1.23463 6.84776C0.744577 6.64477 0.355229 6.25542 0.152241 5.76537C0 5.39782 0 4.93188 0 4Z" fill="white"/>
<path d="M0 14C0 13.0681 0 12.6022 0.152241 12.2346C0.355229 11.7446 0.744577 11.3552 1.23463 11.1522C1.60218 11 2.06812 11 3 11C3.93188 11 4.39782 11 4.76537 11.1522C5.25542 11.3552 5.64477 11.7446 5.84776 12.2346C6 12.6022 6 13.0681 6 14C6 14.9319 6 15.3978 5.84776 15.7654C5.64477 16.2554 5.25542 16.6448 4.76537 16.8478C4.39782 17 3.93188 17 3 17C2.06812 17 1.60218 17 1.23463 16.8478C0.744577 16.6448 0.355229 16.2554 0.152241 15.7654C0 15.3978 0 14.9319 0 14Z" fill="white"/>
<path d="M10 14C10 13.0681 10 12.6022 10.1522 12.2346C10.3552 11.7446 10.7446 11.3552 11.2346 11.1522C11.6022 11 12.0681 11 13 11C13.9319 11 14.3978 11 14.7654 11.1522C15.2554 11.3552 15.6448 11.7446 15.8478 12.2346C16 12.6022 16 13.0681 16 14C16 14.9319 16 15.3978 15.8478 15.7654C15.6448 16.2554 15.2554 16.6448 14.7654 16.8478C14.3978 17 13.9319 17 13 17C12.0681 17 11.6022 17 11.2346 16.8478C10.7446 16.6448 10.3552 16.2554 10.1522 15.7654C10 15.3978 10 14.9319 10 14Z" fill="white"/>
<path d="M13.75 1C13.75 0.585786 13.4142 0.25 13 0.25C12.5858 0.25 12.25 0.585786 12.25 1V3.25H10C9.58579 3.25 9.25 3.58579 9.25 4C9.25 4.41421 9.58579 4.75 10 4.75H12.25V7C12.25 7.41421 12.5858 7.75 13 7.75C13.4142 7.75 13.75 7.41421 13.75 7V4.75H16C16.4142 4.75 16.75 4.41421 16.75 4C16.75 3.58579 16.4142 3.25 16 3.25H13.75V1Z" fill="white"/>
</svg>
