<svg width="20" height="20" viewBox="0 0 20 20" fill="none" xmlns="http://www.w3.org/2000/svg">
<path d="M13.75 6.5C14.1642 6.5 14.5 6.16421 14.5 5.75C14.5 5.33579 14.1642 5 13.75 5L5.75 5C5.33579 5 5 5.33579 5 5.75C5 6.16421 5.33579 6.5 5.75 6.5L13.75 6.5Z" fill="white"/>
<path d="M10.75 9C10.3358 9 10 9.33579 10 9.75C10 10.1642 10.3358 10.5 10.75 10.5H13.75C14.1642 10.5 14.5 10.1642 14.5 9.75C14.5 9.33579 14.1642 9 13.75 9H10.75Z" fill="white"/>
<path fill-rule="evenodd" clip-rule="evenodd" d="M14.2135 0.123728C13.0714 -1.45286e-05 11.6318 -8.0335e-06 9.79525 1.32337e-07H9.70475C7.86821 -8.0335e-06 6.42861 -1.45286e-05 5.28648 0.123728C4.12094 0.250006 3.17656 0.512324 2.37024 1.09815C1.88209 1.45281 1.45281 1.88209 1.09815 2.37024C0.512324 3.17656 0.250006 4.12094 0.123728 5.28648C-1.45286e-05 6.42861 -8.0335e-06 7.86821 1.32338e-07 9.70475V9.76107C1.32338e-07 10.9211 1.32248e-07 11.9185 0.0293687 12.7757C0.0935553 14.6491 0.296296 16.0261 1.09815 17.1298C1.45281 17.6179 1.88209 18.0472 2.37024 18.4018C3.4739 19.2037 4.85087 19.4064 6.72432 19.4706C7.58153 19.5 8.57891 19.5 9.73899 19.5H9.79527C11.6318 19.5 13.0714 19.5 14.2135 19.3763C15.3791 19.25 16.3234 18.9877 17.1298 18.4018C17.6179 18.0472 18.0472 17.6179 18.4018 17.1298C18.9877 16.3234 19.25 15.3791 19.3763 14.2135C19.5 13.0714 19.5 11.6318 19.5 9.79535V9.70473C19.5 7.86824 19.5 6.42859 19.3763 5.28648C19.25 4.12094 18.9877 3.17656 18.4018 2.37024C18.0472 1.88209 17.6179 1.45281 17.1298 1.09815C16.3234 0.512324 15.3791 0.250006 14.2135 0.123728ZM3.25191 2.31168C3.75992 1.94259 4.41013 1.72745 5.44804 1.615C6.49999 1.50103 7.85843 1.5 9.75 1.5C11.6416 1.5 13 1.50103 14.052 1.615C15.0899 1.72745 15.7401 1.94259 16.2481 2.31168C16.6089 2.57382 16.9262 2.89111 17.1883 3.25191C17.5574 3.75992 17.7725 4.41013 17.885 5.44804C17.999 6.49999 18 7.85843 18 9.75C18 11.6416 17.999 13 17.885 14.052C17.7725 15.0899 17.5574 15.7401 17.1883 16.2481C16.9262 16.6089 16.6089 16.9262 16.2481 17.1883C15.7401 17.5574 15.0899 17.7725 14.052 17.885C13 17.999 11.6416 18 9.75 18C8.90165 18 8.15822 18 7.49818 17.9892C7.49381 17.5145 7.47904 17.1651 7.42921 16.8505C7.03952 14.3901 5.10988 12.4605 2.6495 12.0708C2.33489 12.021 1.98547 12.0062 1.51082 12.0018C1.50005 11.3418 1.5 10.5983 1.5 9.75C1.5 7.85843 1.50103 6.49999 1.615 5.44804C1.72745 4.41013 1.94259 3.75992 2.31168 3.25191C2.57382 2.89111 2.89111 2.57382 3.25191 2.31168ZM5.94768 17.0852C5.98015 17.2902 5.99254 17.5276 5.99722 17.9326C4.63688 17.8388 3.85137 17.6238 3.25191 17.1883C2.89111 16.9262 2.57382 16.6089 2.31168 16.2481C1.87615 15.6486 1.66122 14.8631 1.56745 13.5028C1.97239 13.5075 2.20981 13.5199 2.41485 13.5523C4.23339 13.8404 5.65965 15.2666 5.94768 17.0852Z" fill="white"/>
</svg>
