<svg width="20" height="20" viewBox="0 0 20 20" fill="none" xmlns="http://www.w3.org/2000/svg">
<path d="M10.5 0.75C10.5 0.335786 10.1642 0 9.75001 0C9.3358 0 9.00001 0.335786 9.00001 0.75V13.5605C8.67735 13.233 8.29376 12.751 7.73554 12.047L6.33769 10.284C6.08034 9.95946 5.60861 9.90497 5.28404 10.1623C4.95947 10.4197 4.90498 10.8914 5.16232 11.216L6.58857 13.0148C7.12175 13.6872 7.56172 14.2422 7.95552 14.6375C8.35963 15.0432 8.80817 15.3794 9.38134 15.4708C9.50344 15.4902 9.62662 15.5 9.75001 15.5C9.87339 15.5 9.99657 15.4902 10.1187 15.4708C10.6919 15.3794 11.1404 15.0432 11.5445 14.6375C11.9383 14.2422 12.3783 13.6872 12.9114 13.0148L14.3377 11.216C14.595 10.8914 14.5405 10.4197 14.216 10.1623C13.8914 9.90497 13.4197 9.95946 13.1623 10.284L11.7645 12.047C11.2063 12.751 10.8227 13.233 10.5 13.5605V0.75Z" fill="#718096"/>
<path d="M18.35 8.29957C18.1013 7.96837 17.6311 7.90156 17.2999 8.15032C16.9688 8.39909 16.9019 8.86924 17.1507 9.20043C17.6842 9.91067 18 10.7924 18 11.75V12.75C18 13.7077 17.9977 14.0992 17.9477 14.4148C17.6597 16.2334 16.2334 17.6596 14.4149 17.9477C14.0992 17.9977 13.7077 18 12.75 18H6.75001C5.79234 18 5.40083 17.9977 5.08516 17.9477C3.26662 17.6596 1.84036 16.2334 1.55233 14.4148C1.50234 14.0992 1.50001 13.7077 1.50001 12.75V11.75C1.50001 10.7924 1.81583 9.91067 2.34932 9.20043C2.59808 8.86924 2.53127 8.39909 2.20008 8.15032C1.86888 7.90156 1.39874 7.96838 1.14997 8.29957C0.428072 9.26065 8.33053e-06 10.4564 8.33053e-06 11.75L4.0986e-06 12.8308C-6.34931e-05 13.6828 -0.000104621 14.2018 0.0708004 14.6495C0.460487 17.1099 2.39013 19.0395 4.85051 19.4292C5.29819 19.5001 5.81718 19.5001 6.66921 19.5H12.8308C13.6828 19.5001 14.2018 19.5001 14.6495 19.4292C17.1099 19.0395 19.0395 17.1099 19.4292 14.6495C19.5001 14.2018 19.5001 13.6828 19.5 12.8308L19.5 11.75C19.5 10.4564 19.0719 9.26065 18.35 8.29957Z" fill="#718096"/>
</svg>
