<svg width="528" height="100" viewBox="0 0 528 100" fill="none" xmlns="http://www.w3.org/2000/svg">
<g clip-path="url(#clip0_183_469)">
<path d="M75.6039 17.0267C76.8262 16.6999 77.4231 15.6339 78.1977 14.7954C81.4169 11.3204 84.7142 7.90935 87.7699 4.28513C92.3179 -1.10145 99.0831 -1.33596 104.029 4.1359C116.472 17.915 129.107 31.5236 141.664 45.1962C143.888 47.6194 146.056 50.0924 148.358 52.4375C153.048 57.2271 152.608 64.9304 148.479 69.251C142.929 75.0498 137.606 81.0617 132.177 86.9671C131.929 87.2442 131.573 87.4219 131.268 87.6422C131.211 86.761 131.452 85.9366 131.616 85.0768C132.305 81.5734 131.545 78.34 129.335 75.5472C127.778 73.5859 126.009 71.7951 124.332 69.9332C121.106 66.3517 117.901 62.7487 114.632 59.2169C110.631 54.8963 106.666 50.5401 102.494 46.39C100.042 43.9526 96.9441 43.0927 93.4549 44.0449C90.7972 44.7698 88.8287 46.4753 87.1943 48.5077C85.6167 50.4762 83.7904 52.1888 82.1204 54.0577C80.0738 56.3531 78.084 58.6982 76.0729 61.0219C71.2833 65.6837 66.9626 70.7789 62.4075 75.6609C56.2037 82.3195 50.0922 89.0563 43.9382 95.7647C43.6752 96.0489 43.4123 96.3332 43.1352 96.6032C38.6795 101.066 32.8736 101.109 28.5246 96.5108C23.5999 91.309 18.8174 85.9722 13.9851 80.6851C12.9476 79.5481 11.9598 78.3542 10.9507 77.1888C11.4268 77.2456 11.9385 77.203 12.3791 77.3664C16.7352 79.0009 20.2955 77.7146 23.3441 74.4599C27.0536 70.5088 30.8697 66.6572 34.437 62.5782C36.6116 60.0981 38.9282 57.7743 41.1454 55.344C48.7634 47.0296 56.3671 38.6584 63.9993 30.3084C66.9342 27.0964 69.9757 23.9767 72.868 20.722C73.8771 19.585 75.0496 18.5191 75.6039 17.0267Z" fill="#13DCDC"/>
<path d="M188.751 38.6725C193.135 33.1367 198.636 31.2607 204.953 31.3388C211.37 31.417 216.586 33.8687 220.132 39.2837C220.509 39.0918 220.715 39.0492 220.807 38.9284C227.622 29.8252 240.762 29.9815 247.726 33.5631C254.918 37.2655 258.222 43.5404 259.153 51.3076C259.245 52.075 259.274 52.8567 259.274 53.6242C259.295 63.4025 259.238 73.1808 259.338 82.9662C259.388 87.7985 255.358 90.7476 251.976 90.6907C247.939 90.6197 244.791 87.7629 244.528 83.6981C244.471 82.8312 244.5 81.9571 244.5 81.083C244.5 73.2376 244.493 65.3994 244.5 57.554C244.5 56.0972 244.422 54.6546 244.166 53.2192C243.363 48.7848 240.797 46.0418 236.754 45.3596C231.993 44.5495 227.686 46.4824 225.647 50.398C224.879 51.8619 224.368 53.4324 224.254 55.0952C224.147 56.7368 224.048 58.3783 224.041 60.027C224.019 67.1902 224.041 74.3604 224.019 81.5236C224.019 82.5824 223.991 83.6626 223.799 84.7001C223.117 88.438 219.898 90.8684 216.046 90.6552C212.443 90.4562 209.508 87.6208 209.174 83.9824C209.096 83.1154 209.132 82.2413 209.132 81.3673C209.132 73.2305 209.132 65.1009 209.125 56.9642C209.125 55.7064 209.11 54.4557 208.847 53.2121C207.867 48.4579 205.159 45.7504 200.839 45.2885C195.843 44.7555 191.828 46.923 189.881 51.1583C188.715 53.7024 188.594 56.3957 188.587 59.1103C188.566 66.5648 188.587 74.0193 188.566 81.481C188.566 82.5398 188.531 83.62 188.353 84.6575C187.777 87.8837 185.226 90.2644 182.085 90.6197C178.688 91.0034 175.661 89.2908 174.297 86.2635C173.721 84.9844 173.671 83.6484 173.671 82.284C173.678 72.3138 173.678 62.3366 173.671 52.3664C173.671 48.3016 173.856 44.2226 173.621 40.172C173.359 35.6737 176.691 32.8454 180.721 32.9022C184.679 32.9591 187.479 34.1316 188.751 38.6725Z" fill="#161E2B"/>
<path d="M384.316 84.7783C383.734 84.6646 383.52 85.0128 383.258 85.2828C377.231 91.5932 369.706 93.1708 361.427 91.9699C352.672 90.6978 346.411 85.6168 341.87 78.2973C335.297 67.7018 335.169 49.2609 347.804 38.2177C355.621 31.3886 364.568 29.8252 374.375 32.6606C377.381 33.5276 380.003 35.2118 382.27 37.4005C382.803 37.9122 383.329 38.4309 383.982 39.0705C384.565 38.1609 384.402 37.3792 384.402 36.6614C384.416 30.4647 384.373 24.268 384.423 18.0713C384.459 13.9497 386.264 11.3488 389.639 10.2544C394.052 8.82602 398.707 11.8178 399.233 16.4298C399.311 17.0978 399.289 17.78 399.289 18.4622C399.289 39.8593 399.297 61.2564 399.289 82.6535C399.289 83.8118 399.353 84.963 398.941 86.0929C397.968 88.7862 395.729 90.4562 392.823 90.6694C389.582 90.911 386.853 90.1009 385.219 87.0452C384.835 86.3061 384.601 85.4889 384.316 84.7783ZM384.387 61.7183C384.316 52.1603 377.764 45.5656 368.391 45.6083C359.061 45.6509 352.445 52.3735 352.437 61.8249C352.423 71.326 359.324 78.2618 368.647 78.1339C377.963 77.9988 384.459 71.2265 384.387 61.7183Z" fill="#151D2A"/>
<path d="M75.6042 17.0267C75.0499 18.519 73.8774 19.5921 72.8683 20.722C69.976 23.9767 66.9345 27.0964 63.9996 30.3084C56.3674 38.6583 48.7637 47.0296 41.1386 55.3795C38.9214 57.8098 36.6048 60.1336 34.4302 62.6137C30.8629 66.6856 27.0468 70.5443 23.3373 74.4954C20.2887 77.743 16.7284 79.0364 12.3723 77.4019C11.9388 77.2385 11.42 77.2811 10.9439 77.2243C8.49932 74.6305 6.01922 72.0651 3.61728 69.4358C-1.17948 64.1842 -1.2079 57.7174 3.55333 52.473C9.14599 46.3118 14.7884 40.1933 20.4166 34.0676C29.5056 24.1543 38.6017 14.2481 47.6977 4.34195C48.0886 3.91557 48.4865 3.48919 48.8987 3.08413C53.0985 -0.973574 58.8404 -1.08727 62.8839 3.09834C67.2543 7.62506 71.376 12.3721 75.6042 17.0267Z" fill="#327DF2"/>
<path d="M330.116 61.9387C330.095 79.1501 316.749 92.3537 299.41 92.3252C282.192 92.2968 268.995 78.9369 269.052 61.5976C269.109 44.5424 282.462 31.3247 299.602 31.3389C316.842 31.3531 330.138 44.6916 330.116 61.9387ZM284.018 61.7823C283.989 71.0632 290.492 77.7573 299.524 77.7644C308.556 77.7715 315.179 71.0703 315.207 61.896C315.236 52.7218 308.634 45.9352 299.638 45.8997C290.612 45.8571 284.046 52.537 284.018 61.7823Z" fill="#161E2B"/>
<path d="M76.0659 61.0504C78.077 58.7266 80.0668 56.3815 82.1134 54.0862C83.7834 52.2172 85.6097 50.5046 87.1873 48.5362C88.8217 46.4966 90.7902 44.7982 93.448 44.0734C96.9372 43.1211 100.036 43.981 102.487 46.4185C106.659 50.5686 110.624 54.9247 114.625 59.2454C117.901 62.7843 121.099 66.3872 124.325 69.9617C126.002 71.8235 127.771 73.6143 129.328 75.5757C131.531 78.3613 132.291 81.6018 131.609 85.1052C131.438 85.958 131.204 86.7894 131.261 87.6706L131.289 87.6564C130.948 87.7346 130.785 87.9762 130.685 88.2888C128.468 91.3517 125.803 94.0165 123.174 96.7098C118.896 101.094 113.04 101.137 108.812 96.7098C103.802 91.4725 98.9696 86.0717 94.0733 80.7277C88.0685 74.1686 82.0707 67.6024 76.0659 61.0504Z" fill="#327DF2"/>
<path d="M445.345 66.2166C445.345 60.6026 445.31 54.9957 445.367 49.3817C445.381 47.9889 445.061 47.4062 443.526 47.1717C439.419 46.5463 436.946 43.6256 437.059 39.9161C437.173 36.3132 439.746 33.492 443.654 33.0728C445.125 32.9164 445.331 32.3408 445.388 31.1043C445.537 28.0131 445.907 24.9431 446.937 21.9869C449.666 14.1771 456.907 8.72655 464.838 8.51336C467.965 8.42808 470.296 9.76407 471.696 12.4929C473.103 15.2359 472.74 17.9292 470.893 20.3951C469.791 21.8661 468.228 22.6052 466.508 23.0458C462.258 24.133 460.517 27.5227 460.283 31.4667C460.219 32.5682 460.581 33.0657 461.747 32.9946C462.997 32.9235 464.262 32.9377 465.52 32.9946C469.407 33.1794 472.335 36.0574 472.484 39.7953C472.641 43.7109 469.926 46.8022 465.883 47.2285C464.731 47.3493 463.566 47.2783 462.401 47.3138C460.318 47.3636 460.29 47.3707 460.269 49.3604C460.24 51.8761 460.261 54.3917 460.261 56.9073C460.261 65.6126 460.283 74.3249 460.254 83.0301C460.24 88.0898 457.511 90.7547 452.537 90.6765C448.103 90.6055 445.416 87.9619 445.345 83.3428C445.281 77.6293 445.345 71.923 445.345 66.2166Z" fill="#171F2B"/>
<path d="M496.944 61.832C496.944 68.6115 496.944 75.3909 496.944 82.1703C496.944 83.4281 496.951 84.6646 496.468 85.8869C495.175 89.1203 492.169 90.9821 488.644 90.641C485.389 90.3212 482.753 87.8411 482.227 84.4941C482.063 83.4494 482.049 82.3764 482.049 81.3104C482.035 68.3343 482.042 55.3582 482.049 42.3821C482.049 41.4156 482.049 40.442 482.177 39.4827C482.717 35.5316 485.88 32.8667 489.802 33.0017C493.661 33.1296 496.731 36.1001 496.916 40.0441C497.036 42.5597 496.951 45.0754 496.951 47.5981C496.944 52.3451 496.944 57.0921 496.944 61.832Z" fill="#18202D"/>
<path d="M427.793 61.8106C427.793 68.9738 427.857 76.137 427.772 83.3001C427.715 87.8197 424.261 90.911 419.841 90.6552C416.444 90.4562 413.602 87.8979 413.111 84.5224C412.969 83.5702 412.976 82.5895 412.976 81.6301C412.969 68.4692 412.969 55.3013 412.969 42.1404C412.969 41.4653 412.955 40.7831 412.997 40.108C413.303 35.8655 416.508 32.9022 420.644 33.023C424.616 33.1438 427.7 36.1995 427.764 40.3354C427.857 46.4326 427.793 52.5298 427.793 58.627C427.8 59.6787 427.8 60.7447 427.793 61.8106C427.8 61.8106 427.8 61.8106 427.793 61.8106Z" fill="#141C29"/>
<path d="M525.44 62.1092C525.44 69.0805 525.49 76.0447 525.426 83.016C525.384 87.7417 521.994 90.9182 517.474 90.6481C514.07 90.4421 511.256 87.898 510.752 84.5083C510.61 83.556 510.61 82.5825 510.61 81.616C510.602 68.4551 510.602 55.2871 510.602 42.1263C510.602 41.4512 510.588 40.769 510.638 40.0939C510.958 35.8372 514.163 32.8881 518.299 33.016C522.264 33.1368 525.348 36.1996 525.412 40.3355C525.504 46.3332 525.44 52.338 525.44 58.3357C525.44 59.5936 525.44 60.8514 525.44 62.1092Z" fill="#141C29"/>
<path d="M498.664 16.9202C498.657 21.9514 494.464 26.0802 489.39 26.0376C484.487 26.002 480.387 21.8946 480.344 16.977C480.301 11.9813 484.558 7.62512 489.476 7.64644C494.471 7.66776 498.671 11.9031 498.664 16.9202Z" fill="#181F2C"/>
<path d="M429.534 16.913C429.534 21.9585 425.362 26.073 420.289 26.0375C415.378 26.002 411.306 21.9158 411.264 16.9841C411.221 11.9528 415.428 7.63926 420.36 7.64637C425.341 7.65348 429.534 11.8817 429.534 16.913Z" fill="#171F2C"/>
<path d="M527.167 16.9414C527.16 21.9798 522.967 26.0872 517.894 26.0375C512.99 25.9877 508.918 21.8874 508.89 16.9556C508.861 11.9315 513.09 7.61792 518.014 7.63924C523.017 7.67477 527.181 11.8959 527.167 16.9414Z" fill="#171F2C"/>
<path d="M130.692 88.2746C130.792 87.969 130.955 87.7203 131.296 87.6421C131.225 87.9761 131.026 88.1893 130.692 88.2746Z" fill="#13DCDC"/>
</g>
<defs>
<clipPath id="clip0_183_469">
<rect width="527.167" height="100" fill="white"/>
</clipPath>
</defs>
</svg>
