<svg width="25" height="25" viewBox="0 0 25 25" fill="none" xmlns="http://www.w3.org/2000/svg">
<path fill-rule="evenodd" clip-rule="evenodd" d="M3.95543 1.73985C3.95741 1.33306 3.5998 1.00182 3.1567 1.00001C2.71359 0.998193 2.35278 1.32649 2.3508 1.73328L2.34111 3.72595C2.33749 4.46731 2.33446 5.08562 2.3936 5.58275C2.45563 6.10416 2.59426 6.58473 2.94618 7.00219C3.02237 7.09257 3.10469 7.1783 3.19261 7.25888C3.27942 7.33844 3.37168 7.41299 3.46887 7.48204C3.92361 7.80512 4.44708 7.93239 5.01505 7.98933C5.55656 8.04362 6.23006 8.04084 7.03759 8.03752L9.20821 8.02862C9.65132 8.02681 10.0089 7.69557 10.007 7.28878C10.005 6.88199 9.64416 6.5537 9.20105 6.55551L7.0768 6.56421C6.21091 6.56776 5.6293 6.56903 5.18926 6.52491C5.15616 6.52159 5.1245 6.51807 5.09418 6.51434C6.90808 4.63675 9.55333 3.45521 12.5 3.45521C17.9651 3.45521 22.3953 7.52238 22.3953 12.5395C22.3953 12.9463 22.7546 13.276 23.1977 13.276C23.6408 13.276 24 12.9463 24 12.5395C24 6.70879 18.8513 1.98208 12.5 1.98208C9.12728 1.98208 6.09309 3.31583 3.99058 5.43782L3.98877 5.42282C3.94071 5.01885 3.94209 4.4849 3.94596 3.68999L3.95543 1.73985Z" fill="white"/>
<path d="M2.60465 12.5395C2.60465 12.1327 2.24544 11.8029 1.80233 11.8029C1.35921 11.8029 1 12.1327 1 12.5395C1 18.3702 6.14873 23.0969 12.5 23.0969C15.8352 23.0969 18.8394 21.7926 20.939 19.7116C20.9729 20.0985 20.9714 20.6002 20.968 21.31L20.9585 23.2602C20.9565 23.6669 21.3141 23.9982 21.7572 24C22.2004 24.0018 22.5612 23.6735 22.5631 23.2667L22.5728 21.2741C22.5765 20.5327 22.5795 19.9144 22.5203 19.4173C22.4583 18.8958 22.3197 18.4153 21.9678 17.9978C21.9017 17.9194 21.831 17.8446 21.7561 17.7735C21.6593 17.6817 21.5554 17.5963 21.4451 17.518C20.9903 17.1949 20.4669 17.0676 19.8989 17.0107C19.3574 16.9564 18.6839 16.9592 17.8764 16.9625L15.7057 16.9714C15.2626 16.9732 14.905 17.3044 14.907 17.7112C14.909 18.118 15.2698 18.4463 15.7129 18.4445L17.8371 18.4358C18.703 18.4322 19.2846 18.431 19.7247 18.4751C19.8135 18.484 19.8921 18.4944 19.9619 18.5061C18.1466 20.4176 15.4772 21.6238 12.5 21.6238C7.03495 21.6238 2.60465 17.5566 2.60465 12.5395Z" fill="white"/>
</svg>
